# Blender v2.82 (sub 7) OBJ File: ''
# www.blender.org
mtllib bunnywithnormals.mtl
o Box001
v 0.014200 0.591900 0.421500
v -0.239800 0.673200 0.390300
v -0.095200 0.579600 0.536300
v -0.248700 0.078400 -0.364300
v -0.376300 0.142900 -0.295900
v -0.374500 0.249500 -0.366400
v -0.014200 1.610300 0.538400
v 0.102100 1.527900 0.446900
v 0.009400 1.599200 0.317400
v 0.242900 0.905300 -0.121900
v 0.265700 0.708500 -0.273600
v 0.045200 0.892600 -0.162300
v 0.136800 0.396100 0.362100
v 0.368700 0.652300 0.443900
v -0.397600 0.565100 0.424900
v -0.506500 0.444200 0.376900
v 0.745300 0.787100 -0.225100
v 0.793400 0.887100 -0.254500
v 0.790900 0.825500 0.022900
v -0.493800 0.254400 0.349600
v -0.659000 0.299200 0.104400
v -0.528300 0.118500 0.166200
v 0.326900 1.538700 0.800700
v 0.177900 1.380500 0.818900
v 0.358400 1.284500 0.782200
v -0.394000 0.136900 0.329400
v -0.296800 0.364300 0.463300
v 0.342000 0.222100 -0.163200
v 0.301700 0.077000 -0.021000
v 0.342500 0.155200 -0.231700
v -0.123000 0.175600 0.440500
v 0.024100 0.412300 0.537300
v 0.479800 0.101700 0.028600
v 0.459400 0.002600 -0.052300
v 0.296700 0.146400 0.232800
v -0.025400 0.149900 0.397300
v 0.250600 0.056700 0.403400
v 0.380500 1.107700 0.295800
v 0.307700 1.122800 0.250300
v 0.282700 0.951400 0.301300
v -0.792400 0.399100 -0.005500
v -0.777600 0.309300 -0.195800
v -0.810900 0.272900 -0.021200
v 0.209300 1.611500 0.756000
v 0.402600 1.161800 0.435200
v 0.380500 1.261300 0.356200
v 0.810900 0.939600 0.035500
v 0.707800 0.864900 0.240400
v 0.296600 1.269400 0.082600
v 0.113300 1.375600 0.177800
v 0.346800 1.316600 0.095500
v 0.154500 0.032200 -0.414800
v -0.019200 0.154600 -0.380300
v 0.184900 0.182600 -0.308300
v 0.019000 1.342000 0.449900
v -0.092900 1.324500 0.438700
v -0.435800 0.883600 0.319200
v -0.571100 0.697000 0.283300
v -0.414600 0.731300 0.339000
v -0.704800 0.524300 -0.162800
v -0.511600 0.180100 -0.295300
v -0.676000 0.379200 -0.166000
v -0.120400 1.585500 0.492900
v -0.077900 1.510300 0.600600
v -0.374700 0.679000 -0.390100
v -0.625100 0.696500 -0.246000
v -0.483800 0.826600 -0.284800
v -0.689500 0.750500 0.107700
v -0.709100 0.400600 0.001500
v 0.760200 0.620400 0.002700
v 0.686900 0.542600 -0.147600
v 0.682000 0.751400 -0.119200
v -0.278700 1.052500 -0.020300
v -0.504000 0.965900 0.049800
v -0.309400 1.007300 0.163500
v 0.693800 0.467900 0.158600
v 0.559600 0.281300 -0.085400
v 0.604200 0.390800 -0.173800
v 0.254800 1.147300 0.148600
v 0.199300 0.996400 0.085800
v 0.559000 1.166200 0.311600
v 0.383600 1.185700 0.686300
v 0.713000 0.742100 0.108200
v 0.534500 0.803300 0.308000
v 0.575500 0.597300 0.357700
v 0.491000 1.093000 0.327800
v 0.424400 1.577000 0.696900
v 0.491300 1.278300 0.190300
v 0.307400 1.425700 0.215900
v 0.515700 1.329900 0.020300
v 0.356800 1.283400 0.267300
v 0.776500 1.219500 0.052300
v 0.664300 1.249900 -0.112700
v 0.752800 1.082700 -0.226500
v 0.742700 1.096200 0.121500
v -0.660100 0.545400 0.245500
v 0.398100 1.251900 -0.150100
v 0.554200 1.169800 -0.269600
v 0.565900 0.298600 0.163500
v 0.208100 0.357300 -0.319800
v 0.319000 0.002900 0.221600
v -0.369900 0.004100 0.335800
v -0.371300 0.004400 0.136900
v 0.116600 0.003500 0.419200
v -0.265600 1.004400 -0.208500
v -0.185700 0.889100 -0.325500
v 0.549400 0.004400 -0.200600
v 0.519500 1.476000 0.636700
v -0.037200 0.817200 0.389500
v 0.359000 0.247300 0.205100
v 0.523200 0.753500 -0.228100
v 0.478000 0.593600 -0.315300
v -0.663100 0.003000 -0.113800
v -0.556400 0.003800 -0.245500
v 0.534100 0.038200 0.162600
v -0.563800 0.891800 -0.155900
v -0.188100 0.380700 -0.480500
v -0.490700 0.484500 -0.370900
v -0.285500 0.553400 -0.458600
v 0.036700 0.551800 -0.455700
v -0.015100 0.330500 -0.478700
v -0.139900 0.617100 -0.463700
v 0.014000 0.954300 0.161500
v 0.592300 1.242400 0.269700
v 0.432000 0.044300 -0.303700
v 0.516300 1.340800 0.495500
v 0.669800 0.987000 -0.352700
v 0.160300 1.328100 0.720400
v 0.192000 0.860300 0.374800
v -0.201500 0.879700 0.315000
v 0.134000 1.487200 0.685800
v 0.372800 1.127700 -0.114100
v 0.539800 0.865800 -0.368100
v 0.430100 0.898800 -0.247900
v -0.604500 0.003200 0.057000
v 0.099300 0.642200 -0.333300
v 0.474000 0.462700 -0.289600
v -0.165900 0.413400 0.543400
v -0.747100 0.250200 0.094600
v 0.002000 1.478000 0.599900
v -0.244500 0.003500 -0.341800
v 0.420900 0.410500 0.391700
v 0.262100 0.003400 -0.281800
v 0.356300 0.131600 0.038500
v 0.403500 1.335000 0.655600
v 0.293500 1.446500 0.575200
v 0.484900 1.428800 0.450300
v -0.080400 1.352500 0.363200
vn 0.2496 0.9085 0.3352
vn -0.5868 -0.4398 -0.6799
vn 0.5897 0.8073 0.0224
vn 0.1198 0.6148 -0.7795
vn -0.0099 -0.2960 0.9551
vn -0.3423 -0.0639 0.9374
vn 0.8864 -0.4536 -0.0927
vn -0.7881 -0.4143 0.4553
vn 0.1733 -0.0501 0.9836
vn -0.2855 -0.3927 0.8742
vn 0.9809 -0.1356 0.1396
vn -0.1765 -0.2767 0.9446
vn 0.1329 0.6102 -0.7810
vn 0.2663 0.8216 0.5040
vn -0.4554 0.3143 0.8330
vn -0.9750 0.1619 -0.1522
vn -0.1838 0.2814 0.9418
vn -0.9804 -0.0721 0.1834
vn 0.9026 -0.2003 0.3811
vn -0.1951 0.4462 -0.8734
vn 0.2148 0.5351 -0.8170
vn 0.0265 -0.6537 0.7563
vn -0.3486 0.0730 0.9344
vn -0.7017 -0.1238 -0.7016
vn -0.9511 -0.1556 0.2667
vn -0.4312 0.8026 -0.4123
vn -0.4685 0.2568 -0.8453
vn -0.9986 0.0520 0.0130
vn 0.8776 0.0848 -0.4719
vn -0.3039 0.9357 0.1793
vn 0.8775 -0.4619 -0.1294
vn -0.7016 0.3946 0.5933
vn -0.8687 0.1195 0.4807
vn 0.8861 -0.1860 0.4245
vn 0.4659 -0.6391 0.6120
vn 0.4331 0.2919 0.8528
vn -0.2301 -0.8944 0.3836
vn 0.2776 0.7869 0.5511
vn 0.5060 0.7151 -0.4824
vn 0.0574 0.9530 0.2975
vn 0.1514 0.9680 0.2003
vn 0.3984 0.9114 -0.1030
vn 0.9190 0.3940 0.0114
vn -0.9797 -0.0059 0.2002
vn 0.0761 0.8654 -0.4952
vn -0.5874 -0.5935 0.5503
vn 0.6132 -0.4443 0.6531
vn 0.2571 0.4751 0.8415
vn 0.6905 -0.1384 -0.7099
vn 0.9403 0.1213 0.3179
vn -0.0010 -1.0000 -0.0015
vn 0.9167 0.0092 0.3995
vn -0.3896 0.8486 0.3579
vn 0.4226 0.6521 -0.6294
vn 0.3583 0.9102 -0.2077
vn -0.9676 -0.0924 0.2350
vn -0.2313 0.6093 -0.7584
vn -0.0007 -1.0000 -0.0020
vn 0.6726 0.2105 0.7094
vn -0.0826 0.1217 0.9891
vn 0.4774 -0.1919 0.8575
vn 0.6428 0.2187 -0.7342
vn 0.4329 -0.2248 0.8730
vn -0.7049 -0.4171 -0.5737
vn -0.6536 0.6616 0.3676
vn -0.3836 0.3928 0.8358
vn 0.1870 -0.9776 0.0969
vn 0.0415 0.1870 0.9815
vn -0.9840 -0.1782 0.0067
vn 0.3564 0.7756 -0.5209
vn -0.7595 0.6504 -0.0135
vn -0.3660 -0.0890 -0.9263
vn 0.0766 0.0853 -0.9934
vn 0.6228 0.4479 0.6415
vn 0.8678 0.0304 0.4959
vn 0.2408 -0.4918 0.8367
vn 0.1577 0.9525 0.2606
vn 0.8936 0.4367 -0.1040
vn 0.7462 -0.4175 0.5186
vn -0.4213 0.6571 0.6251
vn 0.3791 -0.8388 0.3908
vn 0.7624 0.1450 0.6307
vn 0.5809 0.7179 -0.3837
vn 0.9046 -0.1838 0.3846
vn 0.9793 0.1958 0.0523
vn 0.0325 0.6125 -0.7898
vn 0.2332 0.7573 -0.6100
vn 0.4072 0.5787 -0.7066
vn -0.2902 0.6488 0.7034
vn -0.2497 0.1897 0.9495
vn 0.9368 0.0844 -0.3396
vn -0.7862 -0.4819 -0.3870
vn 0.2198 0.4706 0.8545
vn 0.4547 0.8434 0.2862
vn 0.1352 0.8032 0.5802
vn -0.8493 -0.2424 -0.4690
vn -0.6861 0.2314 -0.6897
vn -0.8121 0.4522 -0.3688
vn 0.7284 0.0571 0.6828
vn -0.6962 0.4269 -0.5772
vn -0.0894 -0.3417 -0.9356
vn 0.8373 -0.3838 0.3894
vn -0.7495 0.2918 0.5942
vn 0.0006 -1.0000 -0.0019
vn -0.2648 -0.5650 0.7814
vn -0.6989 -0.0219 -0.7149
vn 0.0757 0.4608 -0.8843
vn -0.0832 0.1215 0.9891
vn 0.4706 0.5647 -0.6780
vn 0.3124 -0.5704 -0.7596
vn 0.4426 -0.1837 0.8777
vn 0.0322 0.0290 0.9991
vn -0.2408 -0.7069 0.6650
vn -0.8456 0.2442 0.4747
vn 0.2528 0.9609 0.1129
vn -0.3422 0.4503 0.8247
vn 0.7595 0.4375 0.4814
vn -0.1325 0.5089 -0.8506
vn 0.7160 0.2423 -0.6547
vn -0.3694 -0.2000 -0.9075
vn -0.5190 0.3308 -0.7882
vn -0.2079 0.4150 -0.8857
vn 0.0479 -0.7373 0.6739
vn 0.0827 0.8457 0.5271
vn 0.4775 0.5722 -0.6668
vn -0.1157 -0.9899 -0.0822
vn 0.7407 0.2154 0.6364
vn 0.6001 -0.1717 -0.7813
vn -0.9569 0.2361 -0.1692
vn -0.0071 0.9917 -0.1281
vn -0.8684 0.0662 0.4914
vn 0.7654 0.2645 -0.5868
vn -0.2315 0.8558 0.4626
vn 0.0004 -1.0000 0.0043
vn -0.0313 -0.7472 0.6639
vn 0.3106 0.0737 -0.9477
vn 0.2694 -0.0332 0.9624
vn 0.1166 0.2412 -0.9634
vn 0.0114 -0.8607 0.5090
vn 0.5241 0.8468 0.0911
vn -0.1982 0.9776 -0.0703
vn 0.2591 -0.0271 0.9655
vn 0.4351 -0.3619 -0.8244
vn 0.1827 0.4327 0.8828
vn 0.5833 -0.0523 -0.8106
vn -0.6626 0.2591 -0.7028
vn 0.4590 0.4385 0.7727
vn -0.9416 -0.1706 0.2903
vn -0.1919 0.4540 -0.8701
vn -0.0728 0.6924 0.7178
vn -0.1816 0.0144 0.9833
vn 0.4447 0.0594 -0.8937
vn -0.8827 -0.3972 -0.2512
vn 0.8149 -0.5050 -0.2844
vn 0.3900 0.9107 -0.1360
vn 0.0274 -0.9722 -0.2327
vn 0.0027 -1.0000 0.0073
vn 0.9689 -0.2445 0.0376
vn 0.8008 0.3551 0.4823
vn 0.5418 -0.3429 0.7674
vn 0.3364 0.8866 0.3174
vn 0.0652 0.5723 -0.8174
vn -0.1877 0.2693 0.9446
vn -0.0745 0.7191 -0.6909
vn 0.0282 -0.2861 -0.9578
vn 0.4205 0.6506 -0.6324
vn 0.2470 0.9106 0.3314
vn -0.6355 -0.0927 -0.7665
vn -0.4267 -0.1567 0.8907
vn -0.0721 0.0853 -0.9937
vn 0.2129 0.4708 -0.8561
vn 0.0200 0.1316 0.9911
vn 0.6536 -0.4272 0.6248
vn -0.1813 0.0198 -0.9832
vn -0.9125 0.0690 -0.4032
vn 0.7079 -0.5181 0.4800
vn -0.0038 -1.0000 -0.0008
vn -0.6147 0.4812 -0.6249
vn 0.1866 -0.1948 -0.9629
vn 0.8473 -0.4426 0.2936
vn -0.2948 0.0357 -0.9549
vn 0.4542 -0.0361 0.8902
vn -0.1530 -0.5433 -0.8255
vn -0.1179 0.9620 0.2465
vn -0.3805 0.8893 -0.2538
vn -0.2123 0.4058 -0.8890
vn -0.5453 0.1649 0.8218
vn 0.8748 -0.4425 -0.1976
vn -0.5142 -0.4306 -0.7418
vn -0.4057 0.8912 -0.2031
vn -0.0729 -0.0789 0.9942
vn -0.9678 -0.1884 -0.1672
vn 0.5623 0.1244 -0.8175
vn 0.3535 -0.1238 0.9272
vn -0.9668 -0.1096 0.2310
vn -0.1130 0.1478 -0.9825
vn -0.7307 -0.3419 0.5909
vn 0.7205 -0.5879 0.3679
vn 0.7980 -0.6022 0.0217
vn 0.8610 -0.4948 -0.1173
vn -0.3404 0.6102 -0.7154
vn -0.3146 0.9264 -0.2069
vn -0.5892 -0.8074 0.0323
vn -0.8331 -0.1330 0.5370
vn 0.9241 0.0995 0.3689
vn -0.8964 0.3837 -0.2218
vn 0.5053 0.7725 0.3846
vn -0.0473 -0.9018 0.4296
vn -0.3739 0.7133 -0.5928
vn -0.6987 -0.5153 -0.4962
vn 0.7560 0.2918 0.5860
vn 0.3039 -0.7648 0.5681
vn -0.2463 -0.6253 0.7405
vn -0.8039 -0.0022 -0.5947
vn 0.9094 0.3936 0.1346
vn -0.0198 -0.1617 0.9866
vn 0.4049 -0.6685 -0.6238
vn 0.7785 0.2503 -0.5756
vn -0.6526 -0.0478 -0.7562
vn -0.5537 -0.2413 -0.7970
vn 0.9478 0.2193 -0.2315
vn -0.4440 -0.8959 0.0151
vn 0.0063 -1.0000 -0.0010
vn 0.0292 0.0649 -0.9975
vn 0.6611 -0.7406 -0.1204
vn 0.1427 -0.8575 -0.4943
vn 0.9267 0.0882 0.3653
vn -0.5329 -0.8452 0.0401
vn 0.1070 0.6817 -0.7238
vn -0.4619 -0.7551 0.4653
vn -0.7923 -0.5087 0.3368
vn 0.2517 -0.9659 0.0608
vn -0.7034 -0.1255 -0.6997
vn 0.5701 0.7170 -0.4010
vn -0.2961 0.9326 -0.2062
vn 0.3507 -0.4634 -0.8138
vn -0.0894 -0.2286 0.9694
vn -0.2189 0.4540 0.8637
vn 0.0242 0.7731 0.6339
vn -0.5750 0.2775 0.7696
vn 0.8294 -0.3639 0.4239
vn 0.4293 0.9010 0.0631
vn -0.4168 -0.7695 0.4838
vn 0.5854 -0.1304 -0.8002
vn 0.6993 0.6165 -0.3619
vn 0.3392 -0.4118 -0.8458
vn -0.1905 0.3623 -0.9124
vn -0.5861 0.1453 0.7971
vn 0.7665 -0.3674 0.5268
vn -0.3965 -0.2132 -0.8929
vn -0.6390 -0.3058 -0.7058
vn -0.8194 0.2339 -0.5233
vn 0.0223 0.9173 -0.3976
vn -0.6834 0.2620 -0.6814
vn -0.6623 -0.2358 0.7112
vn 0.9492 -0.1350 -0.2842
vn 0.2438 -0.9683 0.0550
vn -0.9216 0.3218 -0.2169
vn 0.5992 0.7426 -0.2993
vn -0.3038 0.6646 -0.6827
vn 0.1485 -0.9606 -0.2351
vn -0.3027 -0.3842 0.8722
vn 0.1014 -0.4875 -0.8672
vn 0.0706 0.8877 -0.4551
vn 0.3413 -0.5770 -0.7420
vn -0.4781 0.2007 -0.8551
vn 0.5324 -0.8459 0.0331
vn -0.4355 0.1725 -0.8835
vn -0.8003 -0.5327 0.2752
vn 0.3738 -0.0344 0.9269
vn -0.3703 0.0320 0.9284
vn 0.0014 0.3163 0.9487
vn -0.3673 0.5877 -0.7210
vn 0.1264 -0.7811 -0.6115
vn 0.9976 0.0477 -0.0493
vn -0.0793 0.6726 0.7358
vn -0.1690 -0.0165 0.9855
vn -0.5185 0.0683 0.8523
vn 0.8698 0.1154 0.4797
vn -0.5568 -0.2675 -0.7864
vn 0.5876 -0.1841 -0.7879
vn -0.1793 0.3109 -0.9334
vn -0.2427 0.8370 -0.4905
vn -0.0028 -0.9997 0.0224
vn -0.1118 0.4472 0.8874
vn -0.3556 -0.2724 -0.8941
vn -0.2820 0.7902 -0.5441
vn 0.7213 0.3627 0.5902
vn -0.0740 -0.2536 -0.9645
vn -0.8854 0.2464 0.3941
vn -0.6433 -0.6770 -0.3576
vn -0.9804 -0.0646 -0.1863
usemtl Default_OBJ
s off
f 1//1 2//1 3//1
f 4//2 5//2 6//2
f 7//3 8//3 9//3
f 10//4 11//4 12//4
f 1//5 13//5 14//5
f 15//6 16//6 3//6
f 17//7 18//7 19//7
f 20//8 21//8 22//8
f 23//9 24//9 25//9
f 26//10 27//10 20//10
f 28//11 29//11 30//11
f 27//12 31//12 32//12
f 33//13 34//13 29//13
f 35//14 36//14 37//14
f 38//15 39//15 40//15
f 41//16 42//16 43//16
f 44//17 24//17 23//17
f 38//18 45//18 46//18
f 47//19 48//19 19//19
f 49//20 50//20 51//20
f 52//21 53//21 54//21
f 55//22 56//22 39//22
f 57//23 58//23 59//23
f 60//24 61//24 62//24
f 63//25 56//25 64//25
f 62//26 42//26 41//26
f 65//27 66//27 67//27
f 68//28 60//28 69//28
f 70//29 71//29 72//29
f 73//30 74//30 75//30
f 76//31 77//31 78//31
f 57//32 68//32 58//32
f 79//33 80//33 39//33
f 81//34 25//34 82//34
f 83//35 48//35 84//35
f 14//36 85//36 84//36
f 45//37 38//37 86//37
f 87//38 44//38 23//38
f 88//39 51//39 89//39
f 90//40 51//40 88//40
f 46//41 88//41 91//41
f 92//42 93//42 90//42
f 47//43 94//43 95//43
f 68//44 69//44 96//44
f 97//45 93//45 98//45
f 20//46 22//46 26//46
f 76//47 85//47 99//47
f 40//48 14//48 84//48
f 100//49 28//49 54//49
f 101//50 35//50 37//50
f 102//51 103//51 104//51
f 83//52 76//52 70//52
f 75//53 74//53 57//53
f 98//54 93//54 94//54
f 105//55 73//55 12//55
f 91//56 38//56 46//56
f 106//57 67//57 105//57
f 104//58 103//58 107//58
f 23//59 108//59 87//59
f 109//60 2//60 1//60
f 13//61 36//61 110//61
f 111//62 71//62 112//62
f 91//63 55//63 39//63
f 113//64 42//64 114//64
f 68//65 57//65 74//65
f 59//66 58//66 15//66
f 115//67 101//67 34//67
f 104//68 37//68 36//68
f 102//69 26//69 103//69
f 106//70 105//70 12//70
f 68//71 74//71 116//71
f 117//72 118//72 119//72
f 120//73 121//73 122//73
f 3//74 32//74 1//74
f 83//75 85//75 76//75
f 36//76 32//76 31//76
f 123//77 73//77 75//77
f 70//78 72//78 83//78
f 32//79 36//79 13//79
f 7//80 63//80 64//80
f 37//81 104//81 101//81
f 124//82 95//82 92//82
f 125//83 30//83 107//83
f 126//84 81//84 124//84
f 18//85 94//85 19//85
f 111//86 11//86 10//86
f 51//87 9//87 89//87
f 94//88 127//88 98//88
f 15//89 3//89 2//89
f 86//90 38//90 40//90
f 34//91 33//91 115//91
f 46//92 45//92 128//92
f 40//93 129//93 14//93
f 107//94 29//94 34//94
f 130//95 123//95 75//95
f 128//96 131//96 46//96
f 132//97 133//97 134//97
f 79//98 10//98 80//98
f 124//99 81//99 95//99
f 132//100 10//100 49//100
f 121//101 4//101 117//101
f 48//102 83//102 19//102
f 68//103 96//103 58//103
f 114//104 107//104 135//104
f 103//105 22//105 135//105
f 66//106 118//106 60//106
f 11//107 111//107 112//107
f 14//108 109//108 1//108
f 12//109 136//109 106//109
f 137//110 28//110 100//110
f 8//111 55//111 91//111
f 138//112 32//112 3//112
f 24//113 82//113 25//113
f 44//114 131//114 24//114
f 124//115 92//115 88//115
f 41//116 139//116 21//116
f 89//117 8//117 91//117
f 65//118 67//118 122//118
f 94//119 18//119 127//119
f 6//120 61//120 118//120
f 132//121 134//121 10//121
f 67//122 106//122 122//122
f 56//123 55//123 140//123
f 109//124 123//124 130//124
f 106//125 136//125 120//125
f 34//126 104//126 107//126
f 81//127 48//127 95//127
f 137//128 112//128 78//128
f 49//129 10//129 79//129
f 62//130 41//130 69//130
f 41//131 43//131 139//131
f 136//132 100//132 120//132
f 123//133 109//133 40//133
f 141//134 107//134 114//134
f 142//135 13//135 110//135
f 100//136 136//136 11//136
f 101//137 115//137 35//137
f 114//138 42//138 62//138
f 138//139 27//139 32//139
f 8//140 89//140 9//140
f 63//141 7//141 9//141
f 86//142 84//142 81//142
f 17//143 133//143 127//143
f 7//144 64//144 140//144
f 121//145 120//145 100//145
f 132//146 98//146 133//146
f 89//147 91//147 88//147
f 96//148 69//148 21//148
f 50//149 9//149 51//149
f 21//150 69//150 41//150
f 26//151 102//151 36//151
f 143//152 54//152 30//152
f 42//153 113//153 43//153
f 28//154 144//154 29//154
f 73//155 123//155 12//155
f 52//156 143//156 141//156
f 103//157 135//157 107//157
f 92//158 95//158 94//158
f 1//159 32//159 13//159
f 108//160 23//160 145//160
f 92//161 90//161 88//161
f 11//162 136//162 12//162
f 109//163 59//163 2//163
f 146//164 44//164 87//164
f 141//165 4//165 53//165
f 54//166 28//166 30//166
f 115//167 33//167 144//167
f 98//168 132//168 97//168
f 16//169 20//169 27//169
f 122//170 117//170 119//170
f 106//171 120//171 122//171
f 57//172 59//172 130//172
f 142//173 99//173 85//173
f 52//174 141//174 53//174
f 132//175 49//175 97//175
f 108//176 145//176 126//176
f 101//177 104//177 34//177
f 116//178 67//178 66//178
f 137//179 100//179 112//179
f 110//180 35//180 144//180
f 5//181 141//181 114//181
f 35//182 110//182 36//182
f 6//183 5//183 61//183
f 40//184 80//184 123//184
f 116//185 73//185 105//185
f 30//186 125//186 143//186
f 16//187 15//187 58//187
f 70//188 78//188 71//188
f 111//189 10//189 134//189
f 73//190 116//190 74//190
f 86//191 40//191 84//191
f 60//192 62//192 69//192
f 72//193 71//193 111//193
f 14//194 142//194 85//194
f 131//195 128//195 24//195
f 100//196 11//196 112//196
f 21//197 16//197 96//197
f 82//198 86//198 81//198
f 76//199 99//199 77//199
f 70//200 76//200 78//200
f 146//201 131//201 44//201
f 49//202 90//202 97//202
f 45//203 86//203 82//203
f 21//204 20//204 16//204
f 145//205 25//205 81//205
f 116//206 66//206 68//206
f 29//207 107//207 30//207
f 31//208 26//208 36//208
f 67//209 116//209 105//209
f 111//210 134//210 133//210
f 84//211 85//211 83//211
f 99//212 142//212 110//212
f 140//213 64//213 56//213
f 50//214 63//214 9//214
f 147//215 126//215 124//215
f 139//216 135//216 21//216
f 78//217 77//217 28//217
f 54//218 143//218 52//218
f 114//219 62//219 61//219
f 49//220 79//220 50//220
f 108//221 126//221 147//221
f 56//222 79//222 39//222
f 113//223 114//223 135//223
f 122//224 121//224 117//224
f 72//225 19//225 83//225
f 125//226 107//226 143//226
f 23//227 25//227 145//227
f 82//228 128//228 45//228
f 29//229 144//229 33//229
f 26//230 22//230 103//230
f 139//231 43//231 135//231
f 99//232 110//232 77//232
f 60//233 118//233 61//233
f 147//234 124//234 88//234
f 123//235 80//235 12//235
f 54//236 53//236 121//236
f 142//237 14//237 13//237
f 130//238 59//238 109//238
f 75//239 57//239 130//239
f 3//240 27//240 138//240
f 55//241 8//241 140//241
f 115//242 144//242 35//242
f 128//243 82//243 24//243
f 121//244 100//244 54//244
f 92//245 94//245 93//245
f 18//246 17//246 127//246
f 65//247 122//247 119//247
f 16//248 58//248 96//248
f 145//249 81//249 126//249
f 118//250 117//250 6//250
f 50//251 79//251 148//251
f 88//252 46//252 146//252
f 80//253 10//253 12//253
f 148//254 63//254 50//254
f 21//255 135//255 22//255
f 94//256 47//256 19//256
f 110//257 28//257 77//257
f 66//258 60//258 68//258
f 147//259 87//259 108//259
f 46//260 131//260 146//260
f 111//261 17//261 72//261
f 27//262 26//262 31//262
f 121//263 53//263 4//263
f 90//264 93//264 97//264
f 78//265 28//265 137//265
f 65//266 118//266 66//266
f 17//267 19//267 72//267
f 65//268 119//268 118//268
f 43//269 113//269 135//269
f 81//270 84//270 48//270
f 16//271 27//271 3//271
f 109//272 14//272 129//272
f 51//273 90//273 49//273
f 111//274 133//274 17//274
f 144//275 28//275 110//275
f 129//276 40//276 109//276
f 36//277 102//277 104//277
f 91//278 39//278 38//278
f 95//279 48//279 47//279
f 4//280 141//280 5//280
f 71//281 78//281 112//281
f 133//282 98//282 127//282
f 147//283 88//283 146//283
f 143//284 107//284 141//284
f 59//285 15//285 2//285
f 4//286 6//286 117//286
f 147//287 146//287 87//287
f 140//288 8//288 7//288
f 5//289 114//289 61//289
f 39//290 80//290 40//290
f 148//291 79//291 56//291
f 63//292 148//292 56//292
